# xmcd
#
# Track frame offsets:
#	150
#	15090
#	30367
#	45972
#	61177
#	77585
#	95407
#	112142
#	127007
#	144477
#	164440
#	179290
#	193305
#	206812
#	221197
#	239232
#	256362
#	272795
#	292862
#	317775
#
# Disc length: 4445 seconds
#
# Revision: 1
# Processed by: cddbd v1.5.1PL0 Copyright (c) Steve Scherf et al.
# Submitted via: CDex 1.50Beta5
#
DISCID=27115b14
DTITLE=Various Artist - City POP - Columbia Music Entertainment Edition
DYEAR=1900
DGENRE=Pop
TTITLE0=いしだあゆみ＆ティン・パン・アレイ・ファミリー/私自身
TTITLE1=ブレッド&バター/ピンク・シャドウ
TTITLE2=マザー・グース/貿易風にさらされて(Single Version)
TTITLE3=やまがたすみこ/夏の光に
TTITLE4=Tinna/マンデイ・モーニング・レイン
TTITLE5=岩渕 まこと/ムーンライト・フライト
TTITLE6=ハイフォニックBig 15 With 細野晴臣/Jamaica Ginger
TTITLE7=佐藤奈々子/サブタレニアン二人ぼっち
TTITLE8=佐藤博/レインボー・シー・ライン
TTITLE9=加藤和彦/Gardenia
TTITLE10=やまがたすみこ/雨上がりのサンバ
TTITLE11=杉 真理＆レッド・ストライプス/雨の日のバースデー
TTITLE12=木戸 やすひろ/ジン・ジン・ジン(Zin Zin Zin)
TTITLE13=佐藤奈々子/週末のハイウェイ
TTITLE14=佐藤博/山の手ホテル
TTITLE15=センチメンタル・シティ・ロマンス/夏の日の想い出(ダンシング・ミュージック)
TTITLE16=斉藤 誠/リアルミー
TTITLE17=黒住 憲五/Pillow Talk
TTITLE18=斉藤 誠/或るグレイな恋の場合
TTITLE19=いしだあゆみ＆ティン・パン・アレイ・ファミリー/バイ・バイ・ジェット
EXTD=
EXTT0=
EXTT1=
EXTT2=
EXTT3=
EXTT4=
EXTT5=
EXTT6=
EXTT7=
EXTT8=
EXTT9=
EXTT10=
EXTT11=
EXTT12=
EXTT13=
EXTT14=
EXTT15=
EXTT16=
EXTT17=
EXTT18=
EXTT19=
PLAYORDER=
